<mxfile host="65bd71144e">
    <diagram id="g_iMHjDWmosd3cNO8kja" name="Page-1">
        <mxGraphModel dx="1374" dy="860" grid="0" gridSize="10" guides="1" tooltips="1" connect="1" arrows="1" fold="1" page="1" pageScale="1" pageWidth="12000" pageHeight="12000" math="0" shadow="0">
            <root>
                <mxCell id="0"/>
                <mxCell id="1" parent="0"/>
                <mxCell id="5" value="" style="whiteSpace=wrap;html=1;fontColor=#46495D;strokeColor=#788AA3;fillColor=#B2C9AB;rounded=1;" vertex="1" parent="1">
                    <mxGeometry x="156" y="225" width="331" height="153" as="geometry"/>
                </mxCell>
            </root>
        </mxGraphModel>
    </diagram>
</mxfile>